<?xml version="1.0" encoding="UTF-8" standalone="no"?>
<!-- Created with Inkscape (http://www.inkscape.org/) -->

<svg
   width="210mm"
   height="297mm"
   viewBox="0 0 210 297"
   version="1.1"
   id="svg5"
   inkscape:version="1.1.2 (0a00cf5339, 2022-02-04)"
   sodipodi:docname="car.svg"
   xmlns:inkscape="http://www.inkscape.org/namespaces/inkscape"
   xmlns:sodipodi="http://sodipodi.sourceforge.net/DTD/sodipodi-0.dtd"
   xmlns="http://www.w3.org/2000/svg"
   xmlns:svg="http://www.w3.org/2000/svg">
  <sodipodi:namedview
     id="namedview7"
     pagecolor="#ffffff"
     bordercolor="#666666"
     borderopacity="1.0"
     inkscape:pageshadow="2"
     inkscape:pageopacity="0.0"
     inkscape:pagecheckerboard="0"
     inkscape:document-units="mm"
     showgrid="false"
     inkscape:zoom="1.8116734"
     inkscape:cx="-26.218853"
     inkscape:cy="582.61052"
     inkscape:window-width="1846"
     inkscape:window-height="1136"
     inkscape:window-x="74"
     inkscape:window-y="27"
     inkscape:window-maximized="1"
     inkscape:current-layer="g19" />
  <defs
     id="defs2">
    <clipPath
       clipPathUnits="userSpaceOnUse"
       id="clipPath23">
      <path
         d="M 0,446 H 4923 V 3013 H 0 V 446"
         id="path21" />
    </clipPath>
  </defs>
  <g
     inkscape:label="Layer 1"
     inkscape:groupmode="layer"
     id="layer1">
    <g
       id="g19"
       clip-path="url(#clipPath23)"
       transform="matrix(0.04233333,0,0,-0.04233333,-4.1653776,219.90571)">
      <path
         d="m 1436.8036,785.61792 c -6.2776,0.90356 -12.6107,1.36523 -18.9529,1.38165"
         style="fill:none;stroke:#000000;stroke-width:6;stroke-linecap:round;stroke-linejoin:round;stroke-miterlimit:10;stroke-dasharray:none;stroke-opacity:1"
         id="path25" />
      <path
         d="m 1450.0609,781.89337 c -4.4866,1.54346 -9.1087,2.66065 -13.805,3.33655"
         style="fill:none;stroke:#000000;stroke-width:6;stroke-linecap:round;stroke-linejoin:round;stroke-miterlimit:10;stroke-dasharray:none;stroke-opacity:1"
         id="path27" />
      <path
         d="m 1462.4146,775.38501 c -3.4775,2.87909 -7.4463,5.10657 -11.7155,6.57526"
         style="fill:none;stroke:#000000;stroke-width:6;stroke-linecap:round;stroke-linejoin:round;stroke-miterlimit:10;stroke-dasharray:none;stroke-opacity:1"
         id="path29" />
      <path
         d="m 1463.9418,770.70184 c 0.2788,1.90088 -0.4545,3.80945 -1.9343,5.03461"
         style="fill:none;stroke:#000000;stroke-width:6;stroke-linecap:round;stroke-linejoin:round;stroke-miterlimit:10;stroke-dasharray:none;stroke-opacity:1"
         id="path31" />
      <path
         d="m 1461.6188,765.4715 c 1.5027,1.23083 2.3762,3.06921 2.3812,5.01165"
         style="fill:none;stroke:#000000;stroke-width:6;stroke-linecap:round;stroke-linejoin:round;stroke-miterlimit:10;stroke-dasharray:none;stroke-opacity:1"
         id="path33" />
      <path
         d="m 1449.8745,759.87158 c 4.0476,1.36908 7.8147,3.45752 11.1201,6.16498"
         style="fill:none;stroke:#000000;stroke-width:6;stroke-linecap:round;stroke-linejoin:round;stroke-miterlimit:10;stroke-dasharray:none;stroke-opacity:1"
         id="path35" />
      <path
         d="m 1436.8688,756.71539 c 4.6998,0.65161 9.3276,1.74482 13.8222,3.26508"
         style="fill:none;stroke:#000000;stroke-width:6;stroke-linecap:round;stroke-linejoin:round;stroke-miterlimit:10;stroke-dasharray:none;stroke-opacity:1"
         id="path37" />
      <path
         d="m 1417.1493,755.00043 c 6.342,-0.0164 12.6776,0.41247 18.9596,1.28351"
         style="fill:none;stroke:#000000;stroke-width:6;stroke-linecap:round;stroke-linejoin:round;stroke-miterlimit:10;stroke-dasharray:none;stroke-opacity:1"
         id="path39" />
      <path
         d="m 1398.1964,756.38208 c 6.2776,-0.90356 12.6107,-1.36523 18.9529,-1.38165"
         style="fill:none;stroke:#000000;stroke-width:6;stroke-linecap:round;stroke-linejoin:round;stroke-miterlimit:10;stroke-dasharray:none;stroke-opacity:1"
         id="path41" />
      <path
         d="m 1384.9391,760.10663 c 4.4866,-1.54346 9.1088,-2.66065 13.805,-3.33655"
         style="fill:none;stroke:#000000;stroke-width:6;stroke-linecap:round;stroke-linejoin:round;stroke-miterlimit:10;stroke-dasharray:none;stroke-opacity:1"
         id="path43" />
      <path
         d="m 1373.8608,766.15552 c 3.2922,-2.72553 7.0492,-4.83423 11.0907,-6.22455"
         style="fill:none;stroke:#000000;stroke-width:6;stroke-linecap:round;stroke-linejoin:round;stroke-miterlimit:10;stroke-dasharray:none;stroke-opacity:1"
         id="path45" />
      <path
         d="m 1371,771.51685 c -0.01,-1.94227 0.8588,-3.78498 2.3549,-5.02356"
         style="fill:none;stroke:#000000;stroke-width:6;stroke-linecap:round;stroke-linejoin:round;stroke-miterlimit:10;stroke-dasharray:none;stroke-opacity:1"
         id="path47" />
      <path
         d="m 1373.3812,776.5285 c -1.5027,-1.23083 -2.3762,-3.06921 -2.3812,-5.01165"
         style="fill:none;stroke:#000000;stroke-width:6;stroke-linecap:round;stroke-linejoin:round;stroke-miterlimit:10;stroke-dasharray:none;stroke-opacity:1"
         id="path49" />
      <path
         d="m 1385.1255,782.12842 c -4.0476,-1.36908 -7.8147,-3.45752 -11.1201,-6.16498"
         style="fill:none;stroke:#000000;stroke-width:6;stroke-linecap:round;stroke-linejoin:round;stroke-miterlimit:10;stroke-dasharray:none;stroke-opacity:1"
         id="path51" />
      <path
         d="m 1399.1312,785.28461 c -4.6998,-0.65161 -9.3276,-1.74482 -13.8222,-3.26508"
         style="fill:none;stroke:#000000;stroke-width:6;stroke-linecap:round;stroke-linejoin:round;stroke-miterlimit:10;stroke-dasharray:none;stroke-opacity:1"
         id="path53" />
      <path
         d="m 1417.8507,786.99957 c -6.342,0.0164 -12.6776,-0.41247 -18.9596,-1.28351"
         style="fill:none;stroke:#000000;stroke-width:6;stroke-linecap:round;stroke-linejoin:round;stroke-miterlimit:10;stroke-dasharray:none;stroke-opacity:1"
         id="path55" />
      <path
         d="m 1417.8507,2598.0005 c 6.3422,0.016 12.6753,0.478 18.9529,1.3816"
         style="fill:none;stroke:#000000;stroke-width:6;stroke-linecap:round;stroke-linejoin:round;stroke-miterlimit:10;stroke-dasharray:none;stroke-opacity:1"
         id="path57" />
      <path
         d="m 1436.2559,2599.77 c 4.6963,0.676 9.3184,1.7932 13.805,3.3367"
         style="fill:none;stroke:#000000;stroke-width:6;stroke-linecap:round;stroke-linejoin:round;stroke-miterlimit:10;stroke-dasharray:none;stroke-opacity:1"
         id="path59" />
      <path
         d="m 1450.6991,2603.0398 c 4.2692,1.4685 8.238,3.696 11.7155,6.5752"
         style="fill:none;stroke:#000000;stroke-width:6;stroke-linecap:round;stroke-linejoin:round;stroke-miterlimit:10;stroke-dasharray:none;stroke-opacity:1"
         id="path61" />
      <path
         d="m 1462.0075,2609.2634 c 1.4798,1.2254 2.2131,3.1338 1.9343,5.0347"
         style="fill:none;stroke:#000000;stroke-width:6;stroke-linecap:round;stroke-linejoin:round;stroke-miterlimit:10;stroke-dasharray:none;stroke-opacity:1"
         id="path63" />
      <path
         d="m 1464,2614.5169 c -0.01,1.9423 -0.8785,3.7807 -2.3812,5.0117"
         style="fill:none;stroke:#000000;stroke-width:6;stroke-linecap:round;stroke-linejoin:round;stroke-miterlimit:10;stroke-dasharray:none;stroke-opacity:1"
         id="path65" />
      <path
         d="m 1460.9946,2618.9634 c -3.3054,2.7075 -7.0725,4.7959 -11.1201,6.165"
         style="fill:none;stroke:#000000;stroke-width:6;stroke-linecap:round;stroke-linejoin:round;stroke-miterlimit:10;stroke-dasharray:none;stroke-opacity:1"
         id="path67" />
      <path
         d="m 1450.691,2626.0195 c -4.4946,1.5203 -9.1224,2.6136 -13.8222,3.2652"
         style="fill:none;stroke:#000000;stroke-width:6;stroke-linecap:round;stroke-linejoin:round;stroke-miterlimit:10;stroke-dasharray:none;stroke-opacity:1"
         id="path69" />
      <path
         d="m 1436.1089,2628.7161 c -6.282,0.8711 -12.6176,1.2998 -18.9596,1.2834"
         style="fill:none;stroke:#000000;stroke-width:6;stroke-linecap:round;stroke-linejoin:round;stroke-miterlimit:10;stroke-dasharray:none;stroke-opacity:1"
         id="path71" />
      <path
         d="m 1417.1493,2629.9995 c -6.3422,-0.016 -12.6753,-0.478 -18.9529,-1.3816"
         style="fill:none;stroke:#000000;stroke-width:6;stroke-linecap:round;stroke-linejoin:round;stroke-miterlimit:10;stroke-dasharray:none;stroke-opacity:1"
         id="path73" />
      <path
         d="m 1398.7441,2629.23 c -4.6962,-0.676 -9.3184,-1.7932 -13.805,-3.3367"
         style="fill:none;stroke:#000000;stroke-width:6;stroke-linecap:round;stroke-linejoin:round;stroke-miterlimit:10;stroke-dasharray:none;stroke-opacity:1"
         id="path75" />
      <path
         d="m 1384.9515,2625.0691 c -4.0415,-1.3904 -7.7985,-3.499 -11.0907,-6.2246"
         style="fill:none;stroke:#000000;stroke-width:6;stroke-linecap:round;stroke-linejoin:round;stroke-miterlimit:10;stroke-dasharray:none;stroke-opacity:1"
         id="path77" />
      <path
         d="m 1373.3549,2619.5068 c -1.4961,-1.2387 -2.3599,-3.0815 -2.3549,-5.0236"
         style="fill:none;stroke:#000000;stroke-width:6;stroke-linecap:round;stroke-linejoin:round;stroke-miterlimit:10;stroke-dasharray:none;stroke-opacity:1"
         id="path79" />
      <path
         d="m 1371,2614.4832 c 0.01,-1.9424 0.8785,-3.7808 2.3812,-5.0118"
         style="fill:none;stroke:#000000;stroke-width:6;stroke-linecap:round;stroke-linejoin:round;stroke-miterlimit:10;stroke-dasharray:none;stroke-opacity:1"
         id="path81" />
      <path
         d="m 1374.0054,2610.0366 c 3.3054,-2.7075 7.0725,-4.7959 11.1201,-6.165"
         style="fill:none;stroke:#000000;stroke-width:6;stroke-linecap:round;stroke-linejoin:round;stroke-miterlimit:10;stroke-dasharray:none;stroke-opacity:1"
         id="path83" />
      <path
         d="m 1385.309,2602.9805 c 4.4946,-1.5203 9.1224,-2.6136 13.8222,-3.2652"
         style="fill:none;stroke:#000000;stroke-width:6;stroke-linecap:round;stroke-linejoin:round;stroke-miterlimit:10;stroke-dasharray:none;stroke-opacity:1"
         id="path85" />
      <path
         d="m 1398.8911,2599.2839 c 6.282,-0.8711 12.6176,-1.2998 18.9596,-1.2834"
         style="fill:none;stroke:#000000;stroke-width:6;stroke-linecap:round;stroke-linejoin:round;stroke-miterlimit:10;stroke-dasharray:none;stroke-opacity:1"
         id="path87" />
      <path
         d="m 4695.7187,802.33301 c 32.1397,6.07959 56.858,31.92022 61.5054,64.29773"
         style="fill:none;stroke:#000000;stroke-width:6;stroke-linecap:round;stroke-linejoin:round;stroke-miterlimit:10;stroke-dasharray:none;stroke-opacity:1"
         id="path89" />
      <path
         d="m 4644.6582,827.32501 c 26.0024,2.75244 47.0205,22.42621 51.4834,48.19031"
         style="fill:none;stroke:#000000;stroke-width:6;stroke-linecap:round;stroke-linejoin:round;stroke-miterlimit:10;stroke-dasharray:none;stroke-opacity:1"
         id="path91" />
      <path
         d="m 4527.3345,815.29169 c 27.4448,2.75091 49.2397,24.29846 52.3037,51.71014"
         style="fill:none;stroke:#000000;stroke-width:6;stroke-linecap:round;stroke-linejoin:round;stroke-miterlimit:10;stroke-dasharray:none;stroke-opacity:1"
         id="path93" />
      <path
         d="m 3043,686 382,17 70,-15 70,-12 71,-7 71,-3 h 71 l 71,4 71,8 70,12 70,15 68,19"
         style="fill:none;stroke:#000000;stroke-width:6;stroke-linecap:round;stroke-linejoin:round;stroke-miterlimit:10;stroke-dasharray:none;stroke-opacity:1"
         id="path95" />
      <path
         d="m 3050,719 267,10 266,12 265,17 266,19 265,23 265,27"
         style="fill:none;stroke:#000000;stroke-width:6;stroke-linecap:round;stroke-linejoin:round;stroke-miterlimit:10;stroke-dasharray:none;stroke-opacity:1"
         id="path97" />
      <path
         d="m 4119,729 145,12 144,16 144,21 144,24"
         style="fill:none;stroke:#000000;stroke-width:6;stroke-linecap:round;stroke-linejoin:round;stroke-miterlimit:10;stroke-dasharray:none;stroke-opacity:1"
         id="path99" />
      <path
         d="M 4568,871 3349,827"
         style="fill:none;stroke:#000000;stroke-width:6;stroke-linecap:round;stroke-linejoin:round;stroke-miterlimit:10;stroke-dasharray:none;stroke-opacity:1"
         id="path101" />
      <path
         d="m 2623,972 33,-184"
         style="fill:none;stroke:#000000;stroke-width:6;stroke-linecap:round;stroke-linejoin:round;stroke-miterlimit:10;stroke-dasharray:none;stroke-opacity:1"
         id="path103" />
      <path
         d="M 3024,807 2589,986"
         style="fill:none;stroke:#000000;stroke-width:6;stroke-linecap:round;stroke-linejoin:round;stroke-miterlimit:10;stroke-dasharray:none;stroke-opacity:1"
         id="path105" />
      <path
         d="m 4128,729 v 49"
         style="fill:none;stroke:#000000;stroke-width:6;stroke-linecap:round;stroke-linejoin:round;stroke-miterlimit:10;stroke-dasharray:none;stroke-opacity:1"
         id="path107" />
      <path
         d="m 2907,746 51,-31"
         style="fill:none;stroke:#000000;stroke-width:6;stroke-linecap:round;stroke-linejoin:round;stroke-miterlimit:10;stroke-dasharray:none;stroke-opacity:1"
         id="path109" />
      <path
         d="m 4128,756 -92,-10 -11,24"
         style="fill:none;stroke:#000000;stroke-width:6;stroke-linecap:round;stroke-linejoin:round;stroke-miterlimit:10;stroke-dasharray:none;stroke-opacity:1"
         id="path111" />
      <path
         d="m 3112.5371,856.63293 c 44.7442,-16.27636 94.5737,3.67023 115.7278,46.32557"
         style="fill:none;stroke:#000000;stroke-width:6;stroke-linecap:round;stroke-linejoin:round;stroke-miterlimit:10;stroke-dasharray:none;stroke-opacity:1"
         id="path113" />
      <path
         d="m 2665,788 72,-3 72,1 72,4 72,7 71,10"
         style="fill:none;stroke:#000000;stroke-width:6;stroke-linecap:round;stroke-linejoin:round;stroke-miterlimit:10;stroke-dasharray:none;stroke-opacity:1"
         id="path115" />
      <path
         d="m 2601,981 34,-194"
         style="fill:none;stroke:#000000;stroke-width:6;stroke-linecap:round;stroke-linejoin:round;stroke-miterlimit:10;stroke-dasharray:none;stroke-opacity:1"
         id="path117" />
      <path
         d="m 3206.5867,692.47083 c -37.7805,55.19219 -95.0003,94.09136 -160.2202,108.92102"
         style="fill:none;stroke:#000000;stroke-width:6;stroke-linecap:round;stroke-linejoin:round;stroke-miterlimit:10;stroke-dasharray:none;stroke-opacity:1"
         id="path119" />
      <path
         d="m 3152,751 145,20"
         style="fill:none;stroke:#000000;stroke-width:6;stroke-linecap:round;stroke-linejoin:round;stroke-miterlimit:10;stroke-dasharray:none;stroke-opacity:1"
         id="path121" />
      <path
         d="m 2885.9346,574.4845 c 75.9377,5.48443 140.9177,56.57727 164.1616,129.07806"
         style="fill:none;stroke:#000000;stroke-width:6;stroke-linecap:round;stroke-linejoin:round;stroke-miterlimit:10;stroke-dasharray:none;stroke-opacity:1"
         id="path123" />
      <path
         d="m 3023.738,741.67505 c -29.3083,1.69629 -58.6203,-3.26404 -85.7387,-14.50903"
         style="fill:none;stroke:#000000;stroke-width:6;stroke-linecap:round;stroke-linejoin:round;stroke-miterlimit:10;stroke-dasharray:none;stroke-opacity:1"
         id="path125" />
      <path
         d="m 2890.7053,740.3064 c -17.1655,-49.86512 -22.6186,-103.013 -15.9375,-155.32489"
         style="fill:none;stroke:#000000;stroke-width:6;stroke-linecap:round;stroke-linejoin:round;stroke-miterlimit:10;stroke-dasharray:none;stroke-opacity:1"
         id="path127" />
      <path
         d="m 2874.0928,585.04303 c 0.7734,-6.0567 6.1455,-10.453 12.2356,-10.01318"
         style="fill:none;stroke:#000000;stroke-width:6;stroke-linecap:round;stroke-linejoin:round;stroke-miterlimit:10;stroke-dasharray:none;stroke-opacity:1"
         id="path129" />
      <path
         d="m 2906.5178,746.2998 c -2.9734,1.82587 -6.615,2.20301 -9.8994,1.02533 -3.2844,-1.17767 -5.8564,-3.78277 -6.9922,-7.08197"
         style="fill:none;stroke:#000000;stroke-width:6;stroke-linecap:round;stroke-linejoin:round;stroke-miterlimit:10;stroke-dasharray:none;stroke-opacity:1"
         id="path131" />
      <path
         d="m 3050.5916,703.49384 c 2.7851,8.68713 1.3942,18.17419 -3.7671,25.69641 -5.1612,7.52227 -13.5125,12.23333 -22.6199,12.76049"
         style="fill:none;stroke:#000000;stroke-width:6;stroke-linecap:round;stroke-linejoin:round;stroke-miterlimit:10;stroke-dasharray:none;stroke-opacity:1"
         id="path133" />
      <path
         d="m 3297.573,771.55969 c 24.9761,3.47998 44.9111,22.57318 49.4651,47.37586"
         style="fill:none;stroke:#000000;stroke-width:6;stroke-linecap:round;stroke-linejoin:round;stroke-miterlimit:10;stroke-dasharray:none;stroke-opacity:1"
         id="path135" />
      <path
         d="m 3306,1099 17,114 14,115 9,115 6,116 1,116 -2,115 -7,116 -10,115 -14,115 -18,114 -23,114"
         style="fill:none;stroke:#000000;stroke-width:6;stroke-linecap:round;stroke-linejoin:round;stroke-miterlimit:10;stroke-dasharray:none;stroke-opacity:1"
         id="path145" />
      <path
         d="m 2460,2250 35,44"
         style="fill:none;stroke:#000000;stroke-width:6;stroke-linecap:round;stroke-linejoin:round;stroke-miterlimit:10;stroke-dasharray:none;stroke-opacity:1"
         id="path147" />
      <path
         d="m 2495,1080 -35,54 v 1116"
         style="fill:none;stroke:#000000;stroke-width:6;stroke-linecap:round;stroke-linejoin:round;stroke-miterlimit:10;stroke-dasharray:none;stroke-opacity:1"
         id="path149" />
      <path
         d="m 2571.011,1079.3848 c -0.3801,-15.2467 9.0207,-29.0324 23.3533,-34.2461"
         style="fill:none;stroke:#000000;stroke-width:6;stroke-linecap:round;stroke-linejoin:round;stroke-miterlimit:10;stroke-dasharray:none;stroke-opacity:1"
         id="path151" />
      <path
         d="m 3347.0381,2566.0644 c -4.554,24.8028 -24.489,43.8958 -49.4651,47.3758"
         style="fill:none;stroke:#000000;stroke-width:6;stroke-linecap:round;stroke-linejoin:round;stroke-miterlimit:10;stroke-dasharray:none;stroke-opacity:1"
         id="path153" />
      <path
         d="m 3024.2046,2643.0493 c 9.1074,0.5271 17.4587,5.2383 22.6199,12.7605 5.1613,7.5222 6.5522,17.0093 3.7671,25.6963"
         style="fill:none;stroke:#000000;stroke-width:6;stroke-linecap:round;stroke-linejoin:round;stroke-miterlimit:10;stroke-dasharray:none;stroke-opacity:1"
         id="path155" />
      <path
         d="m 2889.6262,2644.7568 c 1.1358,-3.299 3.7078,-5.9043 6.9922,-7.082 3.2844,-1.1777 6.926,-0.8005 9.8994,1.0254"
         style="fill:none;stroke:#000000;stroke-width:6;stroke-linecap:round;stroke-linejoin:round;stroke-miterlimit:10;stroke-dasharray:none;stroke-opacity:1"
         id="path157" />
      <path
         d="m 2886.3284,2809.9702 c -6.0901,0.4397 -11.4622,-3.9565 -12.2356,-10.0132"
         style="fill:none;stroke:#000000;stroke-width:6;stroke-linecap:round;stroke-linejoin:round;stroke-miterlimit:10;stroke-dasharray:none;stroke-opacity:1"
         id="path159" />
      <path
         d="m 2873,2800 -2,-40 1,-39 7,-39 10,-38"
         style="fill:none;stroke:#000000;stroke-width:6;stroke-linecap:round;stroke-linejoin:round;stroke-miterlimit:10;stroke-dasharray:none;stroke-opacity:1"
         id="path161" />
      <path
         d="m 2938,2657 28,-9 28,-5 h 30"
         style="fill:none;stroke:#000000;stroke-width:6;stroke-linecap:round;stroke-linejoin:round;stroke-miterlimit:10;stroke-dasharray:none;stroke-opacity:1"
         id="path163" />
      <path
         d="m 3050.0962,2681.4375 c -23.2439,72.5007 -88.2239,123.5935 -164.1616,129.0779"
         style="fill:none;stroke:#000000;stroke-width:6;stroke-linecap:round;stroke-linejoin:round;stroke-miterlimit:10;stroke-dasharray:none;stroke-opacity:1"
         id="path165" />
      <path
         d="m 3152,2633 145,-20"
         style="fill:none;stroke:#000000;stroke-width:6;stroke-linecap:round;stroke-linejoin:round;stroke-miterlimit:10;stroke-dasharray:none;stroke-opacity:1"
         id="path167" />
      <path
         d="m 3046,2584 31,9 30,13 29,17 26,20 23,23 21,26"
         style="fill:none;stroke:#000000;stroke-width:6;stroke-linecap:round;stroke-linejoin:round;stroke-miterlimit:10;stroke-dasharray:none;stroke-opacity:1"
         id="path169" />
      <path
         d="m 2601,2404 34,193"
         style="fill:none;stroke:#000000;stroke-width:6;stroke-linecap:round;stroke-linejoin:round;stroke-miterlimit:10;stroke-dasharray:none;stroke-opacity:1"
         id="path171" />
      <path
         d="m 3024.7217,2578.0513 c -118.6028,19.6902 -239.0237,26.1618 -359.0535,19.2956"
         style="fill:none;stroke:#000000;stroke-width:6;stroke-linecap:round;stroke-linejoin:round;stroke-miterlimit:10;stroke-dasharray:none;stroke-opacity:1"
         id="path173" />
      <path
         d="m 3228.2649,2482.0415 c -21.1541,42.6553 -70.9836,62.6021 -115.7278,46.3254"
         style="fill:none;stroke:#000000;stroke-width:6;stroke-linecap:round;stroke-linejoin:round;stroke-miterlimit:10;stroke-dasharray:none;stroke-opacity:1"
         id="path175" />
      <path
         d="m 2591.3643,2339.8613 c -14.3902,-5.2346 -23.8023,-19.1067 -23.3487,-34.4128"
         style="fill:none;stroke:#000000;stroke-width:6;stroke-linecap:round;stroke-linejoin:round;stroke-miterlimit:10;stroke-dasharray:none;stroke-opacity:1"
         id="path177" />
      <path
         d="m 4128,2628 -92,10 -11,-24"
         style="fill:none;stroke:#000000;stroke-width:6;stroke-linecap:round;stroke-linejoin:round;stroke-miterlimit:10;stroke-dasharray:none;stroke-opacity:1"
         id="path179" />
      <path
         d="m 4763.3023,2516.8101 c -4.4317,32.5818 -29.1885,58.6872 -61.4898,64.8391"
         style="fill:none;stroke:#000000;stroke-width:6;stroke-linecap:round;stroke-linejoin:round;stroke-miterlimit:10;stroke-dasharray:none;stroke-opacity:1"
         id="path181" />
      <path
         d="m 4700.1909,2509.1973 c -4.352,25.8884 -25.4165,45.708 -51.5215,48.4765"
         style="fill:none;stroke:#000000;stroke-width:6;stroke-linecap:round;stroke-linejoin:round;stroke-miterlimit:10;stroke-dasharray:none;stroke-opacity:1"
         id="path183" />
      <path
         d="m 4572.6851,2518.5632 c -2.877,27.6055 -24.7554,49.3899 -52.3731,52.1473"
         style="fill:none;stroke:#000000;stroke-width:6;stroke-linecap:round;stroke-linejoin:round;stroke-miterlimit:10;stroke-dasharray:none;stroke-opacity:1"
         id="path185" />
      <path
         d="m 3555,1536 2,156 -3,157"
         style="fill:none;stroke:#000000;stroke-width:6;stroke-linecap:round;stroke-linejoin:round;stroke-miterlimit:10;stroke-dasharray:none;stroke-opacity:1"
         id="path187" />
      <path
         d="m 3487,1536 1,156 -3,157"
         style="fill:none;stroke:#000000;stroke-width:6;stroke-linecap:round;stroke-linejoin:round;stroke-miterlimit:10;stroke-dasharray:none;stroke-opacity:1"
         id="path189" />
      <path
         d="m 3553,1893 -7,147 -11,147"
         style="fill:none;stroke:#000000;stroke-width:6;stroke-linecap:round;stroke-linejoin:round;stroke-miterlimit:10;stroke-dasharray:none;stroke-opacity:1"
         id="path191" />
      <path
         d="m 3484,1899 -8,151 -11,151"
         style="fill:none;stroke:#000000;stroke-width:6;stroke-linecap:round;stroke-linejoin:round;stroke-miterlimit:10;stroke-dasharray:none;stroke-opacity:1"
         id="path193" />
      <path
         d="m 3555,1536 h -68"
         style="fill:none;stroke:#000000;stroke-width:6;stroke-linecap:round;stroke-linejoin:round;stroke-miterlimit:10;stroke-dasharray:none;stroke-opacity:1"
         id="path195" />
      <path
         d="m 3554,1491 -68,-5"
         style="fill:none;stroke:#000000;stroke-width:6;stroke-linecap:round;stroke-linejoin:round;stroke-miterlimit:10;stroke-dasharray:none;stroke-opacity:1"
         id="path197" />
      <path
         d="m 3538,1198 -68,-14"
         style="fill:none;stroke:#000000;stroke-width:6;stroke-linecap:round;stroke-linejoin:round;stroke-miterlimit:10;stroke-dasharray:none;stroke-opacity:1"
         id="path199" />
      <path
         d="m 3553,1893 -69,6"
         style="fill:none;stroke:#000000;stroke-width:6;stroke-linecap:round;stroke-linejoin:round;stroke-miterlimit:10;stroke-dasharray:none;stroke-opacity:1"
         id="path201" />
      <path
         d="m 3554,1849 h -69"
         style="fill:none;stroke:#000000;stroke-width:6;stroke-linecap:round;stroke-linejoin:round;stroke-miterlimit:10;stroke-dasharray:none;stroke-opacity:1"
         id="path203" />
      <path
         d="m 3535,2187 -70,14"
         style="fill:none;stroke:#000000;stroke-width:6;stroke-linecap:round;stroke-linejoin:round;stroke-miterlimit:10;stroke-dasharray:none;stroke-opacity:1"
         id="path205" />
      <path
         d="m 3470,1184 10,151 6,151"
         style="fill:none;stroke:#000000;stroke-width:6;stroke-linecap:round;stroke-linejoin:round;stroke-miterlimit:10;stroke-dasharray:none;stroke-opacity:1"
         id="path207" />
      <path
         d="m 3538,1198 10,147 6,146"
         style="fill:none;stroke:#000000;stroke-width:6;stroke-linecap:round;stroke-linejoin:round;stroke-miterlimit:10;stroke-dasharray:none;stroke-opacity:1"
         id="path209" />
      <path
         d="m 4509,1149 -1078,-36 127,32 951,4"
         style="fill:none;stroke:#000000;stroke-width:6;stroke-linecap:round;stroke-linejoin:round;stroke-miterlimit:10;stroke-dasharray:none;stroke-opacity:1"
         id="path211" />
      <path
         d="m 2907,2638 51,32"
         style="fill:none;stroke:#000000;stroke-width:6;stroke-linecap:round;stroke-linejoin:round;stroke-miterlimit:10;stroke-dasharray:none;stroke-opacity:1"
         id="path213" />
      <path
         d="m 4128,2655 v -49"
         style="fill:none;stroke:#000000;stroke-width:6;stroke-linecap:round;stroke-linejoin:round;stroke-miterlimit:10;stroke-dasharray:none;stroke-opacity:1"
         id="path223" />
      <path
         d="M 3024,2577 2589,2399"
         style="fill:none;stroke:#000000;stroke-width:6;stroke-linecap:round;stroke-linejoin:round;stroke-miterlimit:10;stroke-dasharray:none;stroke-opacity:1"
         id="path225" />
      <path
         d="M 2495,1080 V 2294"
         style="fill:none;stroke:#000000;stroke-width:6;stroke-linecap:round;stroke-linejoin:round;stroke-miterlimit:10;stroke-dasharray:none;stroke-opacity:1"
         id="path227" />
      <path
         d="m 2621,2402 35,195"
         style="fill:none;stroke:#000000;stroke-width:6;stroke-linecap:round;stroke-linejoin:round;stroke-miterlimit:10;stroke-dasharray:none;stroke-opacity:1"
         id="path229" />
      <path
         d="m 2591,2339 521,189"
         style="fill:none;stroke:#000000;stroke-width:6;stroke-linecap:round;stroke-linejoin:round;stroke-miterlimit:10;stroke-dasharray:none;stroke-opacity:1"
         id="path231" />
      <path
         d="m 4568,2514 -1219,43"
         style="fill:none;stroke:#000000;stroke-width:6;stroke-linecap:round;stroke-linejoin:round;stroke-miterlimit:10;stroke-dasharray:none;stroke-opacity:1"
         id="path233" />
      <path
         d="m 3431,2271 127,-32 951,-4 -1078,36"
         style="fill:none;stroke:#000000;stroke-width:6;stroke-linecap:round;stroke-linejoin:round;stroke-miterlimit:10;stroke-dasharray:none;stroke-opacity:1"
         id="path235" />
      <path
         d="m 4702,2581 -145,25 -146,21 -146,16 -146,12"
         style="fill:none;stroke:#000000;stroke-width:6;stroke-linecap:round;stroke-linejoin:round;stroke-miterlimit:10;stroke-dasharray:none;stroke-opacity:1"
         id="path237" />
      <path
         d="m 4648,2557 -265,27 -266,23 -267,19 -266,17 -267,13 -267,9"
         style="fill:none;stroke:#000000;stroke-width:6;stroke-linecap:round;stroke-linejoin:round;stroke-miterlimit:10;stroke-dasharray:none;stroke-opacity:1"
         id="path239" />
      <path
         d="m 3279,2364 -24,59 -27,59"
         style="fill:none;stroke:#000000;stroke-width:6;stroke-linecap:round;stroke-linejoin:round;stroke-miterlimit:10;stroke-dasharray:none;stroke-opacity:1"
         id="path241" />
      <path
         d="m 3436,1114 12,165 8,166 4,165 -1,166 -5,165 -9,165 -14,165"
         style="fill:none;stroke:#000000;stroke-width:6;stroke-linecap:round;stroke-linejoin:round;stroke-miterlimit:10;stroke-dasharray:none;stroke-opacity:1"
         id="path243" />
      <path
         d="m 3561,1145 11,156 8,156 4,157 -1,157 -4,156 -9,156 -12,156"
         style="fill:none;stroke:#000000;stroke-width:6;stroke-linecap:round;stroke-linejoin:round;stroke-miterlimit:10;stroke-dasharray:none;stroke-opacity:1"
         id="path245" />
      <path
         d="m 2571,1078 5,307 2,307 -3,306 -7,307"
         style="fill:none;stroke:#000000;stroke-width:6;stroke-linecap:round;stroke-linejoin:round;stroke-miterlimit:10;stroke-dasharray:none;stroke-opacity:1"
         id="path247" />
      <path
         d="m 4128,2660 -68,19 -70,16 -70,11 -71,8 -71,4 -71,1 -71,-4 -71,-7 -70,-11 -70,-15 -382,17"
         style="fill:none;stroke:#000000;stroke-width:6;stroke-linecap:round;stroke-linejoin:round;stroke-miterlimit:10;stroke-dasharray:none;stroke-opacity:1"
         id="path249" />
      <path
         d="m 3228,902 30,64 26,66 22,67"
         style="fill:none;stroke:#000000;stroke-width:6;stroke-linecap:round;stroke-linejoin:round;stroke-miterlimit:10;stroke-dasharray:none;stroke-opacity:1"
         id="path251" />
      <path
         d="M 2594,1045 3112,856"
         style="fill:none;stroke:#000000;stroke-width:6;stroke-linecap:round;stroke-linejoin:round;stroke-miterlimit:10;stroke-dasharray:none;stroke-opacity:1"
         id="path253" />
      <path
         d="m 3343,806 23,134 20,135 16,135 11,136 8,136 4,136 1,136 -4,136 -7,136 -11,135 -15,136 -19,135 -23,134"
         style="fill:none;stroke:#000000;stroke-width:6;stroke-linecap:round;stroke-linejoin:round;stroke-miterlimit:10;stroke-dasharray:none;stroke-opacity:1"
         id="path255" />
      <path
         d="m 4580,866 16,165 13,165 9,166 5,165 1,166 -3,165 -6,165 -11,166 -14,165 -17,164"
         style="fill:none;stroke:#000000;stroke-width:6;stroke-linecap:round;stroke-linejoin:round;stroke-miterlimit:10;stroke-dasharray:none;stroke-opacity:1"
         id="path257" />
      <path
         d="m 4696,875 21,135 18,136 14,136 10,136 6,137 2,137 -1,136 -6,137 -9,137 -13,136 -17,135 -21,136"
         style="fill:none;stroke:#000000;stroke-width:6;stroke-linecap:round;stroke-linejoin:round;stroke-miterlimit:10;stroke-dasharray:none;stroke-opacity:1"
         id="path259" />
      <path
         d="m 4757,866 19,150 16,149 12,150 8,150 4,151 1,150 -3,151 -7,150 -11,150 -15,150 -18,149"
         style="fill:none;stroke:#000000;stroke-width:6;stroke-linecap:round;stroke-linejoin:round;stroke-miterlimit:10;stroke-dasharray:none;stroke-opacity:1"
         id="path261" />
      <path
         d="M 386.07047,780.62952 C 387.60101,749.4743 413.30716,725 444.5,725"
         style="fill:none;stroke:#000000;stroke-width:6;stroke-linecap:round;stroke-linejoin:round;stroke-miterlimit:10;stroke-dasharray:none;stroke-opacity:1"
         id="path263" />
      <path
         d="m 443.01819,790.3634 c 0.59869,-18.68945 15.59222,-33.71032 34.28061,-34.34308"
         style="fill:none;stroke:#000000;stroke-width:6;stroke-linecap:round;stroke-linejoin:round;stroke-miterlimit:10;stroke-dasharray:none;stroke-opacity:1"
         id="path265" />
      <path
         d="m 1942.4226,682.5636 c 25.252,33.6958 46.4645,70.23718 63.2029,108.87518"
         style="fill:none;stroke:#000000;stroke-width:6;stroke-linecap:round;stroke-linejoin:round;stroke-miterlimit:10;stroke-dasharray:none;stroke-opacity:1"
         id="path267" />
      <path
         d="m 700,749 61,-24 63,-21 64,-17 64,-14 65,-9 66,-6 66,-3 66,2 66,5 65,9 65,13 64,16"
         style="fill:none;stroke:#000000;stroke-width:6;stroke-linecap:round;stroke-linejoin:round;stroke-miterlimit:10;stroke-dasharray:none;stroke-opacity:1"
         id="path269" />
      <path
         d="m 1388,813 158,171"
         style="fill:none;stroke:#000000;stroke-width:6;stroke-linecap:round;stroke-linejoin:round;stroke-miterlimit:10;stroke-dasharray:none;stroke-opacity:1"
         id="path271" />
      <path
         d="m 1537,806 143,179"
         style="fill:none;stroke:#000000;stroke-width:6;stroke-linecap:round;stroke-linejoin:round;stroke-miterlimit:10;stroke-dasharray:none;stroke-opacity:1"
         id="path273" />
      <path
         d="M 762,724 H 444"
         style="fill:none;stroke:#000000;stroke-width:6;stroke-linecap:round;stroke-linejoin:round;stroke-miterlimit:10;stroke-dasharray:none;stroke-opacity:1"
         id="path275" />
      <path
         d="m 700,749 -223,7"
         style="fill:none;stroke:#000000;stroke-width:6;stroke-linecap:round;stroke-linejoin:round;stroke-miterlimit:10;stroke-dasharray:none;stroke-opacity:1"
         id="path281" />
      <path
         d="m 440.20508,925.43304 c 16.66464,-21.3496 39.64889,-36.88794 65.67084,-44.3963"
         style="fill:none;stroke:#000000;stroke-width:6;stroke-linecap:round;stroke-linejoin:round;stroke-miterlimit:10;stroke-dasharray:none;stroke-opacity:1"
         id="path283" />
      <path
         d="m 1474.6583,700.9425 c 4.0104,11.32776 6.602,23.10865 7.7156,35.07361"
         style="fill:none;stroke:#000000;stroke-width:6;stroke-linecap:round;stroke-linejoin:round;stroke-miterlimit:10;stroke-dasharray:none;stroke-opacity:1"
         id="path285" />
      <path
         d="m 1694,1012 10,44"
         style="fill:none;stroke:#000000;stroke-width:6;stroke-linecap:round;stroke-linejoin:round;stroke-miterlimit:10;stroke-dasharray:none;stroke-opacity:1"
         id="path287" />
      <path
         d="m 2005.6255,2594.5613 c -16.7384,38.6379 -37.9509,75.1792 -63.2029,108.8752"
         style="fill:none;stroke:#000000;stroke-width:6;stroke-linecap:round;stroke-linejoin:round;stroke-miterlimit:10;stroke-dasharray:none;stroke-opacity:1"
         id="path289" />
      <path
         d="M 2160,1037 1570,989"
         style="fill:none;stroke:#000000;stroke-width:6;stroke-linecap:round;stroke-linejoin:round;stroke-miterlimit:10;stroke-dasharray:none;stroke-opacity:1"
         id="path291" />
      <path
         d="M 1533,2343 V 1037"
         style="fill:none;stroke:#000000;stroke-width:6;stroke-linecap:round;stroke-linejoin:round;stroke-miterlimit:10;stroke-dasharray:none;stroke-opacity:1"
         id="path293" />
      <path
         d="m 1482.3739,2649.9839 c -1.1136,11.9648 -3.7052,23.7458 -7.7156,35.0737"
         style="fill:none;stroke:#000000;stroke-width:6;stroke-linecap:round;stroke-linejoin:round;stroke-miterlimit:10;stroke-dasharray:none;stroke-opacity:1"
         id="path431" />
      <path
         d="M 1570,2395 456,2467"
         style="fill:none;stroke:#000000;stroke-width:6;stroke-linecap:round;stroke-linejoin:round;stroke-miterlimit:10;stroke-dasharray:none;stroke-opacity:1"
         id="path433" />
      <path
         d="m 505.87592,2504.9631 c -20.34372,-5.8698 -38.9217,-16.676 -54.08201,-31.4572"
         style="fill:none;stroke:#000000;stroke-width:6;stroke-linecap:round;stroke-linejoin:round;stroke-miterlimit:10;stroke-dasharray:none;stroke-opacity:1"
         id="path435" />
      <path
         d="m 490.2988,2628.9797 c -18.49073,-0.6259 -33.40045,-15.3483 -34.26044,-33.8295"
         style="fill:none;stroke:#000000;stroke-width:6;stroke-linecap:round;stroke-linejoin:round;stroke-miterlimit:10;stroke-dasharray:none;stroke-opacity:1"
         id="path437" />
      <path
         d="m 700,2636 -210,-7"
         style="fill:none;stroke:#000000;stroke-width:6;stroke-linecap:round;stroke-linejoin:round;stroke-miterlimit:10;stroke-dasharray:none;stroke-opacity:1"
         id="path439" />
      <path
         d="m 446.5,2661 c -31.12564,0 -56.80109,-24.3723 -58.42075,-55.4558"
         style="fill:none;stroke:#000000;stroke-width:6;stroke-linecap:round;stroke-linejoin:round;stroke-miterlimit:10;stroke-dasharray:none;stroke-opacity:1"
         id="path441" />
      <path
         d="m 1693.933,2372.4465 c -2.4522,9.9019 -7.0238,19.1536 -13.3994,27.1167"
         style="fill:none;stroke:#000000;stroke-width:6;stroke-linecap:round;stroke-linejoin:round;stroke-miterlimit:10;stroke-dasharray:none;stroke-opacity:1"
         id="path443" />
      <path
         d="m 1566.4681,2378.1433 c -1.9666,15.9204 -9.3039,30.6941 -20.8004,41.8819"
         style="fill:none;stroke:#000000;stroke-width:6;stroke-linecap:round;stroke-linejoin:round;stroke-miterlimit:10;stroke-dasharray:none;stroke-opacity:1"
         id="path445" />
      <path
         d="m 2160,2347 -590,48"
         style="fill:none;stroke:#000000;stroke-width:6;stroke-linecap:round;stroke-linejoin:round;stroke-miterlimit:10;stroke-dasharray:none;stroke-opacity:1"
         id="path453" />
      <path
         d="m 1949,2364 52,230"
         style="fill:none;stroke:#000000;stroke-width:6;stroke-linecap:round;stroke-linejoin:round;stroke-miterlimit:10;stroke-dasharray:none;stroke-opacity:1"
         id="path455" />
      <path
         d="M 762,2660 H 446"
         style="fill:none;stroke:#000000;stroke-width:6;stroke-linecap:round;stroke-linejoin:round;stroke-miterlimit:10;stroke-dasharray:none;stroke-opacity:1"
         id="path457" />
      <path
         d="M 450,2452 1578,2338"
         style="fill:none;stroke:#000000;stroke-width:6;stroke-linecap:round;stroke-linejoin:round;stroke-miterlimit:10;stroke-dasharray:none;stroke-opacity:1"
         id="path459" />
      <path
         d="m 1694,2372 10,-43"
         style="fill:none;stroke:#000000;stroke-width:6;stroke-linecap:round;stroke-linejoin:round;stroke-miterlimit:10;stroke-dasharray:none;stroke-opacity:1"
         id="path463" />
      <path
         d="m 1537,2579 143,-180"
         style="fill:none;stroke:#000000;stroke-width:6;stroke-linecap:round;stroke-linejoin:round;stroke-miterlimit:10;stroke-dasharray:none;stroke-opacity:1"
         id="path465" />
      <path
         d="m 1388,2571 157,-152"
         style="fill:none;stroke:#000000;stroke-width:6;stroke-linecap:round;stroke-linejoin:round;stroke-miterlimit:10;stroke-dasharray:none;stroke-opacity:1"
         id="path467" />
      <path
         d="m 1965,2363 52,231"
         style="fill:none;stroke:#000000;stroke-width:6;stroke-linecap:round;stroke-linejoin:round;stroke-miterlimit:10;stroke-dasharray:none;stroke-opacity:1"
         id="path471" />
      <path
         d="m 1564,1023 17,150 13,150 8,151 4,151 v 151 l -4,150 -8,151 -12,150 -17,150"
         style="fill:none;stroke:#000000;stroke-width:6;stroke-linecap:round;stroke-linejoin:round;stroke-miterlimit:10;stroke-dasharray:none;stroke-opacity:1"
         id="path473" />
      <path
         d="m 1475.0778,2685.4558 c -256.1713,73.0652 -529.67289,55.8543 -774.66386,-48.748"
         style="fill:none;stroke:#000000;stroke-width:6;stroke-linecap:round;stroke-linejoin:round;stroke-miterlimit:10;stroke-dasharray:none;stroke-opacity:1"
         id="path475" />
      <path
         d="m 1547.2808,984.65643 c 9.9897,10.81195 16.3446,24.47967 18.1732,39.08617"
         style="fill:none;stroke:#000000;stroke-width:6;stroke-linecap:round;stroke-linejoin:round;stroke-miterlimit:10;stroke-dasharray:none;stroke-opacity:1"
         id="path477" />
      <path
         d="m 1680.5336,985.43683 c 6.3756,7.96307 10.9472,17.21487 13.3994,27.11667"
         style="fill:none;stroke:#000000;stroke-width:6;stroke-linecap:round;stroke-linejoin:round;stroke-miterlimit:10;stroke-dasharray:none;stroke-opacity:1"
         id="path479" />
      <path
         d="m 1965,1021 52,-231"
         style="fill:none;stroke:#000000;stroke-width:6;stroke-linecap:round;stroke-linejoin:round;stroke-miterlimit:10;stroke-dasharray:none;stroke-opacity:1"
         id="path481" />
      <path
         d="m 1680.5336,985.43683 c 6.3756,7.96307 10.9472,17.21487 13.3994,27.11667"
         style="fill:none;stroke:#000000;stroke-width:6;stroke-linecap:round;stroke-linejoin:round;stroke-miterlimit:10;stroke-dasharray:none;stroke-opacity:1"
         id="path487" />
      <path
         d="m 1949,1020 52,-230"
         style="fill:none;stroke:#000000;stroke-width:6;stroke-linecap:round;stroke-linejoin:round;stroke-miterlimit:10;stroke-dasharray:none;stroke-opacity:1"
         id="path489" />
      <path
         d="M 1570,989 440,916"
         style="fill:none;stroke:#000000;stroke-width:6;stroke-linecap:round;stroke-linejoin:round;stroke-miterlimit:10;stroke-dasharray:none;stroke-opacity:1"
         id="path493" />
      <path
         d="m 439,931 1129,110"
         style="fill:none;stroke:#000000;stroke-width:6;stroke-linecap:round;stroke-linejoin:round;stroke-miterlimit:10;stroke-dasharray:none;stroke-opacity:1"
         id="path495" />
      <path
         d="m 388,2605 -12,-261 -8,-261 -4,-260 v -261 l 3,-261 7,-261 11,-260"
         style="fill:none;stroke:#000000;stroke-width:6;stroke-linecap:round;stroke-linejoin:round;stroke-miterlimit:10;stroke-dasharray:none;stroke-opacity:1"
         id="path497" />
      <path
         d="m 456,2595 -12,-301 -8,-300 -4,-301 v -301 l 4,-301 7,-301"
         style="fill:none;stroke:#000000;stroke-width:6;stroke-linecap:round;stroke-linejoin:round;stroke-miterlimit:10;stroke-dasharray:none;stroke-opacity:1"
         id="path499" />
      <path
         d="m 1571,2291 148,-17 148,-13 148,-9 148,-4 148,-1 149,3"
         style="fill:none;stroke:#000000;stroke-width:6;stroke-linecap:round;stroke-linejoin:round;stroke-miterlimit:10;stroke-dasharray:none;stroke-opacity:1"
         id="path501" />
      <path
         d="m 2460,1134 -149,4 -148,-1 -148,-5 -148,-9 -148,-13 -148,-16"
         style="fill:none;stroke:#000000;stroke-width:6;stroke-linecap:round;stroke-linejoin:round;stroke-miterlimit:10;stroke-dasharray:none;stroke-opacity:1"
         id="path503" />
      <path
         d="m 2495,1080 -153,5 -153,-1 -154,-4 -152,-9 -153,-13 -152,-17"
         style="fill:none;stroke:#000000;stroke-width:6;stroke-linecap:round;stroke-linejoin:round;stroke-miterlimit:10;stroke-dasharray:none;stroke-opacity:1"
         id="path505" />
      <path
         d="m 2589,986 -72,19 -73,15 -74,10 -75,6 -74,3 -75,-3 -74,-6"
         style="fill:none;stroke:#000000;stroke-width:6;stroke-linecap:round;stroke-linejoin:round;stroke-miterlimit:10;stroke-dasharray:none;stroke-opacity:1"
         id="path507" />
      <path
         d="m 505,880 269,-25 270,-21 270,-17 270,-13 270,-10 270,-6 271,-2 270,2"
         style="fill:none;stroke:#000000;stroke-width:6;stroke-linecap:round;stroke-linejoin:round;stroke-miterlimit:10;stroke-dasharray:none;stroke-opacity:1"
         id="path509" />
      <path
         d="m 456,802 302,-26 303,-22 303,-18 303,-13 304,-8 303,-5 h 304 l 304,5"
         style="fill:none;stroke:#000000;stroke-width:6;stroke-linecap:round;stroke-linejoin:round;stroke-miterlimit:10;stroke-dasharray:none;stroke-opacity:1"
         id="path511" />
      <path
         d="m 1475,700 279,-12 280,-8 280,-4 h 281 l 280,5"
         style="fill:none;stroke:#000000;stroke-width:6;stroke-linecap:round;stroke-linejoin:round;stroke-miterlimit:10;stroke-dasharray:none;stroke-opacity:1"
         id="path513" />
      <path
         d="m 2875,2703 -280,5 -281,1 -280,-4 -280,-8 -279,-13"
         style="fill:none;stroke:#000000;stroke-width:6;stroke-linecap:round;stroke-linejoin:round;stroke-miterlimit:10;stroke-dasharray:none;stroke-opacity:1"
         id="path515" />
      <path
         d="m 2882,2670 -304,4 h -304 l -303,-4 -304,-9 -303,-13 -303,-17 -303,-22 -302,-26"
         style="fill:none;stroke:#000000;stroke-width:6;stroke-linecap:round;stroke-linejoin:round;stroke-miterlimit:10;stroke-dasharray:none;stroke-opacity:1"
         id="path517" />
      <path
         d="m 1578,2343 153,-17 153,-13 154,-9 154,-4 h 154 l 154,4"
         style="fill:none;stroke:#000000;stroke-width:6;stroke-linecap:round;stroke-linejoin:round;stroke-miterlimit:10;stroke-dasharray:none;stroke-opacity:1"
         id="path519" />
      <path
         d="m 2665,2597 -270,1 -271,-2 -270,-6 -270,-9 -270,-14 -270,-17 -270,-21 -269,-25"
         style="fill:none;stroke:#000000;stroke-width:6;stroke-linecap:round;stroke-linejoin:round;stroke-miterlimit:10;stroke-dasharray:none;stroke-opacity:1"
         id="path521" />
      <path
         d="m 2072,2354 74,-6 75,-2 74,2 75,6 74,11 73,15 72,19"
         style="fill:none;stroke:#000000;stroke-width:6;stroke-linecap:round;stroke-linejoin:round;stroke-miterlimit:10;stroke-dasharray:none;stroke-opacity:1"
         id="path523" />
      <path
         d="m 1563,2343 184,-16 184,-12 185,-7 184,-2 185,3"
         style="fill:none;stroke:#000000;stroke-width:6;stroke-linecap:round;stroke-linejoin:round;stroke-miterlimit:10;stroke-dasharray:none;stroke-opacity:1"
         id="path525" />
    </g>
  </g>
</svg>
